<?xml version="1.0" encoding="UTF-8"?>
<!DOCTYPE svg PUBLIC "-//W3C//DTD SVG 1.1//EN" "http://www.w3.org/Graphics/SVG/1.1/DTD/svg11.dtd">
<svg xmlns="http://www.w3.org/2000/svg" version="1.1" width="573px" height="521px" style="shape-rendering:geometricPrecision; text-rendering:geometricPrecision; image-rendering:optimizeQuality; fill-rule:evenodd; clip-rule:evenodd" xmlns:xlink="http://www.w3.org/1999/xlink">
<g><path style="opacity:1" fill="#e4e4e3" d="M -0.5,-0.5 C 190.5,-0.5 381.5,-0.5 572.5,-0.5C 572.5,173.167 572.5,346.833 572.5,520.5C 551.833,520.5 531.167,520.5 510.5,520.5C 509.245,518.359 507.578,517.693 505.5,518.5C 502.649,517.988 501.316,516.321 501.5,513.5C 498.724,513.911 498.057,513.078 499.5,511C 498.268,507.61 497.434,507.777 497,511.5C 496.683,509.699 496.016,509.366 495,510.5C 493.812,509.437 493.312,508.103 493.5,506.5C 491.167,506.5 488.833,506.5 486.5,506.5C 487.154,502.317 485.488,499.484 481.5,498C 481.833,497.667 482.167,497.333 482.5,497C 480.899,496.727 479.399,496.227 478,495.5C 477.667,495.833 477.333,496.167 477,496.5C 475.902,495.033 474.402,494.199 472.5,494C 473.19,491.13 471.857,489.463 468.5,489C 469.167,488.667 469.833,488.333 470.5,488C 468.196,487.105 465.862,486.271 463.5,485.5C 463.139,482.308 461.472,480.141 458.5,479C 458.833,478.667 459.167,478.333 459.5,478C 457.808,476.599 457.141,474.766 457.5,472.5C 455.712,472.785 454.045,472.452 452.5,471.5C 450.65,470.352 449.983,469.019 450.5,467.5C 449.549,468.326 448.549,468.492 447.5,468C 445.428,466.727 444.095,464.893 443.5,462.5C 441.659,461.77 439.825,461.103 438,460.5C 437.667,460.833 437.333,461.167 437,461.5C 436.764,459.236 436.264,457.069 435.5,455C 433.359,455.086 431.026,454.919 428.5,454.5C 428.696,450.359 426.696,448.025 422.5,447.5C 420.578,446.04 419.911,444.373 420.5,442.5C 418.174,442.9 415.841,442.4 413.5,441C 412.833,439.667 411.833,438.667 410.5,438C 411.169,433.794 409.169,431.294 404.5,430.5C 403.106,430.621 401.772,430.954 400.5,431.5C 399.537,431.03 399.537,430.363 400.5,429.5C 401.833,313.833 401.833,198.167 400.5,82.5C 373.5,82.5 346.5,82.5 319.5,82.5C 315.774,82.1774 312.107,82.5108 308.5,83.5C 279.903,150.126 251.403,216.792 223,283.5C 194.558,216.949 166.391,150.282 138.5,83.5C 108.174,82.5002 77.8407,82.1668 47.5,82.5C 46.5005,197.999 46.1672,313.665 46.5,429.5C 45.5039,414.676 45.1706,399.676 45.5,384.5C 45.5,347.167 45.5,309.833 45.5,272.5C 45.5,224.5 45.5,176.5 45.5,128.5C 43.1272,127.706 40.7938,126.706 38.5,125.5C 37.5274,129.107 37.5274,132.44 38.5,135.5C 38.1667,136.5 37.5,137.167 36.5,137.5C 35.5,136.167 34.5,136.167 33.5,137.5C 32.1288,135.454 30.4622,133.621 28.5,132C 29.8333,131.333 29.8333,130.667 28.5,130C 26.7536,129.529 25.087,128.862 23.5,128C 22.1667,127.333 22.1667,126.667 23.5,126C 22.2068,125.51 20.8734,125.343 19.5,125.5C 19.2407,121.932 17.2407,120.599 13.5,121.5C 13.6567,122.873 13.49,124.207 13,125.5C 11.513,124.747 11.3463,123.914 12.5,123C 10.4156,121.573 10.4156,119.907 12.5,118C 9.66718,113.36 7.33385,113.86 5.5,119.5C 6.13133,123.034 6.798,126.534 7.5,130C 4.85397,130.497 2.1873,130.664 -0.5,130.5C -0.5,86.8333 -0.5,43.1667 -0.5,-0.5 Z"/></g>
<g><path style="opacity:1" fill="#464b4b" d="M 484.5,192.5 C 483.711,192.783 483.044,193.283 482.5,194C 505.498,194.5 528.498,194.667 551.5,194.5C 551.5,203.5 551.5,212.5 551.5,221.5C 512.167,221.5 472.833,221.5 433.5,221.5C 433.334,213.826 433.5,206.159 434,198.5C 455.81,179.361 475.477,158.361 493,135.5C 498.806,126.948 499.806,117.948 496,108.5C 484.77,99.3834 473.27,99.2168 461.5,108C 458.62,111.217 455.453,114.05 452,116.5C 445.295,110.797 438.295,105.464 431,100.5C 435.51,88.9743 443.344,80.141 454.5,74C 477.732,64.0775 500.065,65.7442 521.5,79C 534.882,91.8228 539.382,107.323 535,125.5C 533.393,130.988 531.393,136.322 529,141.5C 524.156,149.188 518.823,156.521 513,163.5C 503.298,173.035 493.798,182.702 484.5,192.5 Z"/></g>
<g><path style="opacity:1" fill="#454b4b" d="M 47.5,83.5 C 47.5,83.1667 47.5,82.8333 47.5,82.5C 77.8407,82.1668 108.174,82.5002 138.5,83.5C 166.391,150.282 194.558,216.949 223,283.5C 251.403,216.792 279.903,150.126 308.5,83.5C 312.107,82.5108 315.774,82.1774 319.5,82.5C 345.995,83.4979 372.661,83.8312 399.5,83.5C 399.485,198.171 399.485,312.837 399.5,427.5C 376.327,427.169 353.327,427.502 330.5,428.5C 330.167,428.5 329.833,428.5 329.5,428.5C 329.5,356.833 329.5,285.167 329.5,213.5C 329.666,208.821 329.499,204.155 329,199.5C 314.097,235.637 298.93,271.637 283.5,307.5C 274.305,328.418 265.305,349.418 256.5,370.5C 234.164,370.667 211.831,370.5 189.5,370C 185.438,359.958 181.105,350.125 176.5,340.5C 156.891,294.281 137.557,247.948 118.5,201.5C 118.013,200.527 117.513,199.527 117,198.5C 116.601,198.728 116.435,199.062 116.5,199.5C 115.832,272.902 115.165,346.402 114.5,420C 114.47,421.429 114.803,422.929 115.5,424.5C 114.167,424.5 112.833,424.5 111.5,424.5C 111.714,420.743 110.714,420.076 108.5,422.5C 107.833,421.167 107.167,419.833 106.5,418.5C 105.5,419.5 104.5,420.5 103.5,421.5C 104.833,422.5 106.167,423.5 107.5,424.5C 106.224,425.645 104.891,425.645 103.5,424.5C 102.5,425.167 101.5,425.833 100.5,426.5C 99.1667,425.167 97.8333,425.167 96.5,426.5C 94.997,425.41 94.6637,424.243 95.5,423C 86.8397,422.5 78.1731,422.334 69.5,422.5C 68.7745,415.371 72.1078,410.705 79.5,408.5C 87.4723,411.694 94.8056,410.694 101.5,405.5C 95.5625,398.183 94.2292,390.183 97.5,381.5C 96.319,378.624 95.319,375.624 94.5,372.5C 95.2248,370.065 96.2248,367.399 97.5,364.5C 96.8262,361.158 96.1595,357.825 95.5,354.5C 96.8333,354.5 98.1667,354.5 99.5,354.5C 99.7989,352.396 99.4656,350.396 98.5,348.5C 94.4166,344.587 90.5832,340.587 87,336.5C 86.0497,337.022 85.2164,337.689 84.5,338.5C 83.6549,343.768 80.9882,347.768 76.5,350.5C 75.8333,352.167 75.1667,353.833 74.5,355.5C 72.208,354.21 70.208,352.543 68.5,350.5C 67.4593,352.991 66.6259,352.991 66,350.5C 65.6964,352.441 64.8631,354.107 63.5,355.5C 65.0049,356.842 65.6715,358.508 65.5,360.5C 63.7376,360.643 62.0709,360.309 60.5,359.5C 61.2112,354.657 61.2112,349.657 60.5,344.5C 59.0353,345.609 58.0353,345.109 57.5,343C 57.9574,342.586 58.2907,342.086 58.5,341.5C 56.5995,340.455 54.9328,339.122 53.5,337.5C 54.7687,333.351 55.4354,329.018 55.5,324.5C 55.4354,319.982 54.7687,315.649 53.5,311.5C 56.1667,308.833 56.1667,306.167 53.5,303.5C 55.2603,300.788 55.927,297.788 55.5,294.5C 53.5,294.5 51.5,294.5 49.5,294.5C 49.7947,296.735 49.4614,298.735 48.5,300.5C 48.8326,227.998 48.4992,155.665 47.5,83.5 Z"/></g>
<g><path style="opacity:1" fill="#dddddd" d="M 45.5,272.5 C 44.8826,272.389 44.3826,272.056 44,271.5C 43.6667,269.5 43.3333,267.5 43,265.5C 42.8052,270.418 42.3052,275.251 41.5,280C 42.6034,281.68 42.2701,283.18 40.5,284.5C 40.9377,285.506 41.6043,285.506 42.5,284.5C 43.8333,285.5 43.8333,286.5 42.5,287.5C 40.8662,287.032 39.6995,286.032 39,284.5C 37.9505,285.517 36.7839,285.684 35.5,285C 34.1379,282.966 33.1379,280.799 32.5,278.5C 30.8333,278.5 29.1667,278.5 27.5,278.5C 27.162,276.146 26.662,273.813 26,271.5C 25.5172,272.448 25.3505,273.448 25.5,274.5C 24.448,274.649 23.448,274.483 22.5,274C 21.1667,273.333 21.1667,272.667 22.5,272C 18.7892,270.135 15.4559,267.969 12.5,265.5C 12.2407,261.932 10.2407,260.599 6.5,261.5C 6.61623,258.09 4.94956,256.756 1.5,257.5C 1.84316,255.517 1.17649,254.183 -0.5,253.5C -0.5,212.5 -0.5,171.5 -0.5,130.5C 2.1873,130.664 4.85397,130.497 7.5,130C 6.798,126.534 6.13133,123.034 5.5,119.5C 7.33385,113.86 9.66718,113.36 12.5,118C 10.4156,119.907 10.4156,121.573 12.5,123C 11.3463,123.914 11.513,124.747 13,125.5C 13.49,124.207 13.6567,122.873 13.5,121.5C 17.2407,120.599 19.2407,121.932 19.5,125.5C 20.8734,125.343 22.2068,125.51 23.5,126C 22.1667,126.667 22.1667,127.333 23.5,128C 25.087,128.862 26.7536,129.529 28.5,130C 29.8333,130.667 29.8333,131.333 28.5,132C 30.4622,133.621 32.1288,135.454 33.5,137.5C 34.5,136.167 35.5,136.167 36.5,137.5C 37.5,137.167 38.1667,136.5 38.5,135.5C 37.5274,132.44 37.5274,129.107 38.5,125.5C 40.7938,126.706 43.1272,127.706 45.5,128.5C 45.5,176.5 45.5,224.5 45.5,272.5 Z"/></g>
<g><path style="opacity:1" fill="#a2a4a3" d="M 484.5,192.5 C 506.833,193.167 529.167,193.833 551.5,194.5C 528.498,194.667 505.498,194.5 482.5,194C 483.044,193.283 483.711,192.783 484.5,192.5 Z"/></g>
<g><path style="opacity:1" fill="#e1e1e1" d="M 329.5,213.5 C 328.667,258.998 328.167,304.665 328,350.5C 327.832,341.814 327.332,333.148 326.5,324.5C 326.347,327.216 326.347,330.049 326.5,333C 325.978,333.95 325.311,334.784 324.5,335.5C 324.709,336.086 325.043,336.586 325.5,337C 323.655,338.128 321.655,338.628 319.5,338.5C 319.719,337.325 319.386,336.325 318.5,335.5C 317.304,335.846 317.304,336.346 318.5,337C 317.552,337.483 316.552,337.649 315.5,337.5C 315.822,335.278 315.155,333.444 313.5,332C 314.167,331.667 314.833,331.333 315.5,331C 312.901,330.231 310.401,330.398 308,331.5C 307.654,328.424 306.988,325.424 306,322.5C 303.945,322.848 301.945,322.181 300,320.5C 299.667,318.167 299.333,315.833 299,313.5C 298.667,314.167 298.333,314.833 298,315.5C 296.41,313.621 294.577,311.954 292.5,310.5C 291.614,311.325 291.281,312.325 291.5,313.5C 289.227,312.265 287.394,312.598 286,314.5C 285.552,311.969 284.719,309.636 283.5,307.5C 298.93,271.637 314.097,235.637 329,199.5C 329.499,204.155 329.666,208.821 329.5,213.5 Z"/></g>
<g><path style="opacity:1" fill="#dbdcdb" d="M 118.5,201.5 C 137.557,247.948 156.891,294.281 176.5,340.5C 175.221,341.968 173.554,342.635 171.5,342.5C 171.799,340.396 171.466,338.396 170.5,336.5C 169.571,337.689 169.238,339.022 169.5,340.5C 168.167,340.5 166.833,340.5 165.5,340.5C 165.66,342.199 165.494,343.866 165,345.5C 164.64,343.579 163.806,341.912 162.5,340.5C 161.833,341.5 161.167,342.5 160.5,343.5C 160.167,343.333 159.833,343.167 159.5,343C 159.511,340.242 159.177,337.409 158.5,334.5C 157.692,336.423 157.192,338.423 157,340.5C 155.98,337.15 154.48,337.317 152.5,341C 153.15,345.642 154.817,350.142 157.5,354.5C 160.598,354.413 160.932,354.913 158.5,356C 159.5,356.333 160.5,356.667 161.5,357C 160.987,359.718 160.987,362.551 161.5,365.5C 159.167,366.833 156.833,366.833 154.5,365.5C 154.351,366.552 154.517,367.552 155,368.5C 158.031,367.774 157.864,368.441 154.5,370.5C 151.773,367.842 152.107,365.509 155.5,363.5C 155.167,363.167 154.833,362.833 154.5,362.5C 153.131,364.124 151.464,364.624 149.5,364C 150.28,362.927 150.113,361.76 149,360.5C 148.333,359.167 147.667,359.167 147,360.5C 142.666,354.382 136.833,351.049 129.5,350.5C 127.977,348.019 126.31,345.519 124.5,343C 122.866,342.506 121.199,342.34 119.5,342.5C 118.854,308.693 118.187,275.027 117.5,241.5C 117.171,227.99 117.504,214.656 118.5,201.5 Z"/></g>
<g><path style="opacity:1" fill="#9c9e9d" d="M 551.5,194.5 C 552.494,203.652 552.827,212.985 552.5,222.5C 512.663,222.832 472.996,222.499 433.5,221.5C 472.833,221.5 512.167,221.5 551.5,221.5C 551.5,212.5 551.5,203.5 551.5,194.5 Z"/></g>
<g><path style="opacity:1" fill="#414444" d="M 319.5,82.5 C 346.5,82.5 373.5,82.5 400.5,82.5C 400.5,197.833 400.5,313.167 400.5,428.5C 377.167,428.5 353.833,428.5 330.5,428.5C 353.327,427.502 376.327,427.169 399.5,427.5C 399.485,312.837 399.485,198.171 399.5,83.5C 372.661,83.8312 345.995,83.4979 319.5,82.5 Z"/></g>
<g><path style="opacity:1" fill="#d7d7d7" d="M -0.5,253.5 C 1.17649,254.183 1.84316,255.517 1.5,257.5C 4.94956,256.756 6.61623,258.09 6.5,261.5C 10.2407,260.599 12.2407,261.932 12.5,265.5C 15.4559,267.969 18.7892,270.135 22.5,272C 21.1667,272.667 21.1667,273.333 22.5,274C 23.448,274.483 24.448,274.649 25.5,274.5C 25.3505,273.448 25.5172,272.448 26,271.5C 26.662,273.813 27.162,276.146 27.5,278.5C 29.1667,278.5 30.8333,278.5 32.5,278.5C 33.1379,280.799 34.1379,282.966 35.5,285C 36.7839,285.684 37.9505,285.517 39,284.5C 39.6995,286.032 40.8662,287.032 42.5,287.5C 43.8333,286.5 43.8333,285.5 42.5,284.5C 41.6043,285.506 40.9377,285.506 40.5,284.5C 42.2701,283.18 42.6034,281.68 41.5,280C 42.3052,275.251 42.8052,270.418 43,265.5C 43.3333,267.5 43.6667,269.5 44,271.5C 44.3826,272.056 44.8826,272.389 45.5,272.5C 45.5,309.833 45.5,347.167 45.5,384.5C 44.5028,384.47 43.8361,384.97 43.5,386C 45.0609,389.186 44.5609,392.019 42,394.5C 38.2963,392.523 34.7963,390.189 31.5,387.5C 33.5,386.167 35.5,386.167 37.5,387.5C 37.1667,388.167 36.8333,388.833 36.5,389.5C 37.723,390.614 39.0563,390.781 40.5,390C 42.088,386.386 41.4213,383.219 38.5,380.5C 37.5713,381.689 37.238,383.022 37.5,384.5C 35.0799,384.292 32.7466,384.626 30.5,385.5C 29.2011,384.91 28.3678,383.91 28,382.5C 27.6924,383.308 27.1924,383.975 26.5,384.5C 24.9539,383.316 23.2873,382.316 21.5,381.5C 22.6405,380.575 22.6405,379.741 21.5,379C 16.893,377.363 12.5596,375.196 8.5,372.5C 7.83333,374.5 7.16667,376.5 6.5,378.5C 5.19769,373.615 5.19769,368.782 6.5,364C 4.67935,361.756 2.34602,360.59 -0.5,360.5C -0.5,324.833 -0.5,289.167 -0.5,253.5 Z"/></g>
<g><path style="opacity:1" fill="#707272" d="M 47.5,82.5 C 47.5,82.8333 47.5,83.1667 47.5,83.5C 47.5,198.5 47.5,313.5 47.5,428.5C 70.5,428.5 93.5,428.5 116.5,428.5C 116.5,352.167 116.5,275.833 116.5,199.5C 116.435,199.062 116.601,198.728 117,198.5C 117.513,199.527 118.013,200.527 118.5,201.5C 117.504,214.656 117.171,227.99 117.5,241.5C 117.5,304.167 117.5,366.833 117.5,429.5C 94.1667,429.5 70.8333,429.5 47.5,429.5C 47.1667,429.5 46.8333,429.5 46.5,429.5C 46.1672,313.665 46.5005,197.999 47.5,82.5 Z"/></g>
<g><path style="opacity:1" fill="#dddddc" d="M 329.5,213.5 C 329.5,285.167 329.5,356.833 329.5,428.5C 352.994,429.498 376.661,429.831 400.5,429.5C 399.537,430.363 399.537,431.03 400.5,431.5C 401.772,430.954 403.106,430.621 404.5,430.5C 409.169,431.294 411.169,433.794 410.5,438C 411.833,438.667 412.833,439.667 413.5,441C 415.841,442.4 418.174,442.9 420.5,442.5C 419.911,444.373 420.578,446.04 422.5,447.5C 426.696,448.025 428.696,450.359 428.5,454.5C 431.026,454.919 433.359,455.086 435.5,455C 436.264,457.069 436.764,459.236 437,461.5C 437.333,461.167 437.667,460.833 438,460.5C 439.825,461.103 441.659,461.77 443.5,462.5C 444.095,464.893 445.428,466.727 447.5,468C 448.549,468.492 449.549,468.326 450.5,467.5C 449.983,469.019 450.65,470.352 452.5,471.5C 454.045,472.452 455.712,472.785 457.5,472.5C 457.141,474.766 457.808,476.599 459.5,478C 459.167,478.333 458.833,478.667 458.5,479C 461.472,480.141 463.139,482.308 463.5,485.5C 465.862,486.271 468.196,487.105 470.5,488C 469.833,488.333 469.167,488.667 468.5,489C 471.857,489.463 473.19,491.13 472.5,494C 474.402,494.199 475.902,495.033 477,496.5C 477.333,496.167 477.667,495.833 478,495.5C 479.399,496.227 480.899,496.727 482.5,497C 482.167,497.333 481.833,497.667 481.5,498C 485.488,499.484 487.154,502.317 486.5,506.5C 488.833,506.5 491.167,506.5 493.5,506.5C 493.312,508.103 493.812,509.437 495,510.5C 496.016,509.366 496.683,509.699 497,511.5C 497.434,507.777 498.268,507.61 499.5,511C 498.057,513.078 498.724,513.911 501.5,513.5C 501.316,516.321 502.649,517.988 505.5,518.5C 507.578,517.693 509.245,518.359 510.5,520.5C 464.833,520.5 419.167,520.5 373.5,520.5C 373.047,519.542 372.381,518.708 371.5,518C 369.443,517.695 367.443,517.695 365.5,518C 366.673,514.89 366.173,514.723 364,517.5C 362.471,516.271 361.304,514.771 360.5,513C 358.649,512.163 356.816,511.329 355,510.5C 354.784,508.616 354.117,506.949 353,505.5C 350.646,505.892 348.146,505.892 345.5,505.5C 345.5,503.5 345.5,501.5 345.5,499.5C 341.092,499.938 339.425,497.938 340.5,493.5C 337.813,493.664 335.146,493.497 332.5,493C 332.616,491.732 332.949,490.398 333.5,489C 332.874,488.25 332.374,487.416 332,486.5C 330.383,485.359 328.55,484.526 326.5,484C 325.949,482.602 325.616,481.268 325.5,480C 323.109,479.713 320.776,479.213 318.5,478.5C 316.759,473.931 313.426,471.431 308.5,471C 307.663,469.989 307.33,468.822 307.5,467.5C 305.194,467.007 302.861,466.674 300.5,466.5C 300.676,462.808 299.009,460.808 295.5,460.5C 295.649,459.448 295.483,458.448 295,457.5C 294.667,457.833 294.333,458.167 294,458.5C 293.758,456.862 292.925,455.362 291.5,454C 289.527,453.505 287.527,453.338 285.5,453.5C 284.956,451.42 284.122,449.42 283,447.5C 281.644,446.62 280.144,446.286 278.5,446.5C 278.649,445.448 278.483,444.448 278,443.5C 274.465,441.299 271.632,438.465 269.5,435C 267.19,434.503 264.857,434.337 262.5,434.5C 262.286,432.856 262.62,431.356 263.5,430C 261.833,429.667 260.167,429.333 258.5,429C 257.378,426.876 255.878,425.043 254,423.5C 253.667,423.833 253.333,424.167 253,424.5C 251.401,422.944 249.901,421.277 248.5,419.5C 249.025,418.808 249.692,418.308 250.5,418C 246.88,417.716 244.38,415.883 243,412.5C 241.644,413.38 240.144,413.714 238.5,413.5C 239.112,409.124 237.946,408.457 235,411.5C 234.667,409.833 234.333,408.167 234,406.5C 232.333,405.5 230.667,404.5 229,403.5C 228.383,402.551 228.549,401.718 229.5,401C 223.732,401.17 221.399,398.67 222.5,393.5C 219.206,393.741 216.206,392.908 213.5,391C 213.833,390.667 214.167,390.333 214.5,390C 211.456,389.641 211.122,388.974 213.5,388C 211.045,387.606 209.045,386.44 207.5,384.5C 208.167,384.167 208.833,383.833 209.5,383.5C 208.009,382.756 206.509,382.09 205,381.5C 204.667,381.833 204.333,382.167 204,382.5C 199.659,378.359 200.492,375.193 206.5,373C 205.167,372.667 203.833,372.333 202.5,372C 220.671,371.832 238.671,371.332 256.5,370.5C 265.305,349.418 274.305,328.418 283.5,307.5C 284.719,309.636 285.552,311.969 286,314.5C 287.394,312.598 289.227,312.265 291.5,313.5C 291.281,312.325 291.614,311.325 292.5,310.5C 294.577,311.954 296.41,313.621 298,315.5C 298.333,314.833 298.667,314.167 299,313.5C 299.333,315.833 299.667,318.167 300,320.5C 301.945,322.181 303.945,322.848 306,322.5C 306.988,325.424 307.654,328.424 308,331.5C 310.401,330.398 312.901,330.231 315.5,331C 314.833,331.333 314.167,331.667 313.5,332C 315.155,333.444 315.822,335.278 315.5,337.5C 316.552,337.649 317.552,337.483 318.5,337C 317.304,336.346 317.304,335.846 318.5,335.5C 319.386,336.325 319.719,337.325 319.5,338.5C 321.655,338.628 323.655,338.128 325.5,337C 325.043,336.586 324.709,336.086 324.5,335.5C 325.311,334.784 325.978,333.95 326.5,333C 326.347,330.049 326.347,327.216 326.5,324.5C 327.332,333.148 327.832,341.814 328,350.5C 328.167,304.665 328.667,258.998 329.5,213.5 Z"/></g>
<g><path style="opacity:1" fill="#d8d8d7" d="M 117.5,241.5 C 118.187,275.027 118.854,308.693 119.5,342.5C 121.199,342.34 122.866,342.506 124.5,343C 126.31,345.519 127.977,348.019 129.5,350.5C 136.833,351.049 142.666,354.382 147,360.5C 147.667,359.167 148.333,359.167 149,360.5C 150.113,361.76 150.28,362.927 149.5,364C 151.464,364.624 153.131,364.124 154.5,362.5C 154.833,362.833 155.167,363.167 155.5,363.5C 152.107,365.509 151.773,367.842 154.5,370.5C 157.864,368.441 158.031,367.774 155,368.5C 154.517,367.552 154.351,366.552 154.5,365.5C 156.833,366.833 159.167,366.833 161.5,365.5C 160.987,362.551 160.987,359.718 161.5,357C 160.5,356.667 159.5,356.333 158.5,356C 160.932,354.913 160.598,354.413 157.5,354.5C 154.817,350.142 153.15,345.642 152.5,341C 154.48,337.317 155.98,337.15 157,340.5C 157.192,338.423 157.692,336.423 158.5,334.5C 159.177,337.409 159.511,340.242 159.5,343C 159.833,343.167 160.167,343.333 160.5,343.5C 161.167,342.5 161.833,341.5 162.5,340.5C 163.806,341.912 164.64,343.579 165,345.5C 165.494,343.866 165.66,342.199 165.5,340.5C 166.833,340.5 168.167,340.5 169.5,340.5C 169.238,339.022 169.571,337.689 170.5,336.5C 171.466,338.396 171.799,340.396 171.5,342.5C 173.554,342.635 175.221,341.968 176.5,340.5C 181.105,350.125 185.438,359.958 189.5,370C 211.831,370.5 234.164,370.667 256.5,370.5C 238.671,371.332 220.671,371.832 202.5,372C 203.833,372.333 205.167,372.667 206.5,373C 200.492,375.193 199.659,378.359 204,382.5C 204.333,382.167 204.667,381.833 205,381.5C 206.509,382.09 208.009,382.756 209.5,383.5C 208.833,383.833 208.167,384.167 207.5,384.5C 209.045,386.44 211.045,387.606 213.5,388C 211.122,388.974 211.456,389.641 214.5,390C 214.167,390.333 213.833,390.667 213.5,391C 216.206,392.908 219.206,393.741 222.5,393.5C 221.399,398.67 223.732,401.17 229.5,401C 228.549,401.718 228.383,402.551 229,403.5C 230.667,404.5 232.333,405.5 234,406.5C 234.333,408.167 234.667,409.833 235,411.5C 237.946,408.457 239.112,409.124 238.5,413.5C 240.144,413.714 241.644,413.38 243,412.5C 244.38,415.883 246.88,417.716 250.5,418C 249.692,418.308 249.025,418.808 248.5,419.5C 249.901,421.277 251.401,422.944 253,424.5C 253.333,424.167 253.667,423.833 254,423.5C 255.878,425.043 257.378,426.876 258.5,429C 260.167,429.333 261.833,429.667 263.5,430C 262.62,431.356 262.286,432.856 262.5,434.5C 264.857,434.337 267.19,434.503 269.5,435C 271.632,438.465 274.465,441.299 278,443.5C 278.483,444.448 278.649,445.448 278.5,446.5C 280.144,446.286 281.644,446.62 283,447.5C 284.122,449.42 284.956,451.42 285.5,453.5C 287.527,453.338 289.527,453.505 291.5,454C 292.925,455.362 293.758,456.862 294,458.5C 294.333,458.167 294.667,457.833 295,457.5C 295.483,458.448 295.649,459.448 295.5,460.5C 299.009,460.808 300.676,462.808 300.5,466.5C 302.861,466.674 305.194,467.007 307.5,467.5C 307.33,468.822 307.663,469.989 308.5,471C 313.426,471.431 316.759,473.931 318.5,478.5C 320.776,479.213 323.109,479.713 325.5,480C 325.616,481.268 325.949,482.602 326.5,484C 328.55,484.526 330.383,485.359 332,486.5C 332.374,487.416 332.874,488.25 333.5,489C 332.949,490.398 332.616,491.732 332.5,493C 335.146,493.497 337.813,493.664 340.5,493.5C 339.425,497.938 341.092,499.938 345.5,499.5C 345.5,501.5 345.5,503.5 345.5,505.5C 348.146,505.892 350.646,505.892 353,505.5C 354.117,506.949 354.784,508.616 355,510.5C 356.816,511.329 358.649,512.163 360.5,513C 361.304,514.771 362.471,516.271 364,517.5C 366.173,514.723 366.673,514.89 365.5,518C 367.443,517.695 369.443,517.695 371.5,518C 372.381,518.708 373.047,519.542 373.5,520.5C 307.167,520.5 240.833,520.5 174.5,520.5C 171.989,517.887 168.989,515.72 165.5,514C 162.886,511.2 160.553,508.2 158.5,505C 157.552,504.517 156.552,504.351 155.5,504.5C 155.5,503.5 155.5,502.5 155.5,501.5C 154.127,501.657 152.793,501.49 151.5,501C 151.833,500.667 152.167,500.333 152.5,500C 150.368,498.303 149.035,496.136 148.5,493.5C 145.03,492.712 142.363,490.712 140.5,487.5C 141.59,486.391 141.59,485.391 140.5,484.5C 139.803,486.385 138.803,486.718 137.5,485.5C 135.437,483.28 133.604,480.946 132,478.5C 130.992,478.018 129.825,477.852 128.5,478C 127.36,476.027 126.027,474.193 124.5,472.5C 123.808,473.025 123.308,473.692 123,474.5C 122.51,473.207 122.343,471.873 122.5,470.5C 121.127,470.657 119.793,470.49 118.5,470C 118.966,468.701 118.966,467.201 118.5,465.5C 116.712,465.785 115.045,465.452 113.5,464.5C 112.91,463.201 111.91,462.368 110.5,462C 112.929,461.549 113.096,460.715 111,459.5C 110.667,459.833 110.333,460.167 110,460.5C 108.294,457.726 106.294,456.059 104,455.5C 103.667,455.833 103.333,456.167 103,456.5C 101.891,454.185 100.057,452.685 97.5,452C 97.8333,451.667 98.1667,451.333 98.5,451C 96.8707,450.415 95.3707,449.581 94,448.5C 91.952,450.79 89.7853,453.123 87.5,455.5C 86.635,456.583 85.635,456.749 84.5,456C 82.2804,453.781 80.4471,451.281 79,448.5C 78.1072,449.711 77.2739,449.711 76.5,448.5C 77.2634,447.281 78.2634,446.281 79.5,445.5C 82.1841,445.024 84.5175,444.024 86.5,442.5C 83.7105,439.742 81.3772,436.576 79.5,433C 78.376,432.751 77.376,432.251 76.5,431.5C 66.675,430.833 57.0083,430.167 47.5,429.5C 70.8333,429.5 94.1667,429.5 117.5,429.5C 117.5,366.833 117.5,304.167 117.5,241.5 Z"/></g>
<g><path style="opacity:1" fill="#3f4343" d="M 47.5,83.5 C 48.4992,155.665 48.8326,227.998 48.5,300.5C 48.5,342.833 48.5,385.167 48.5,427.5C 70.8358,427.667 93.1692,427.5 115.5,427C 114.402,426.23 114.402,425.397 115.5,424.5C 114.803,422.929 114.47,421.429 114.5,420C 115.165,346.402 115.832,272.902 116.5,199.5C 116.5,275.833 116.5,352.167 116.5,428.5C 93.5,428.5 70.5,428.5 47.5,428.5C 47.5,313.5 47.5,198.5 47.5,83.5 Z"/></g>
<g><path style="opacity:1" fill="#444949" d="M 115.5,424.5 C 114.402,425.397 114.402,426.23 115.5,427C 93.1692,427.5 70.8358,427.667 48.5,427.5C 48.5,385.167 48.5,342.833 48.5,300.5C 49.4614,298.735 49.7947,296.735 49.5,294.5C 51.5,294.5 53.5,294.5 55.5,294.5C 55.927,297.788 55.2603,300.788 53.5,303.5C 56.1667,306.167 56.1667,308.833 53.5,311.5C 54.7687,315.649 55.4354,319.982 55.5,324.5C 55.4354,329.018 54.7687,333.351 53.5,337.5C 54.9328,339.122 56.5995,340.455 58.5,341.5C 58.2907,342.086 57.9574,342.586 57.5,343C 58.0353,345.109 59.0353,345.609 60.5,344.5C 61.2112,349.657 61.2112,354.657 60.5,359.5C 62.0709,360.309 63.7376,360.643 65.5,360.5C 65.6715,358.508 65.0049,356.842 63.5,355.5C 64.8631,354.107 65.6964,352.441 66,350.5C 66.6259,352.991 67.4593,352.991 68.5,350.5C 70.208,352.543 72.208,354.21 74.5,355.5C 75.1667,353.833 75.8333,352.167 76.5,350.5C 80.9882,347.768 83.6549,343.768 84.5,338.5C 85.2164,337.689 86.0497,337.022 87,336.5C 90.5832,340.587 94.4166,344.587 98.5,348.5C 99.4656,350.396 99.7989,352.396 99.5,354.5C 98.1667,354.5 96.8333,354.5 95.5,354.5C 96.1595,357.825 96.8262,361.158 97.5,364.5C 96.2248,367.399 95.2248,370.065 94.5,372.5C 95.319,375.624 96.319,378.624 97.5,381.5C 94.2292,390.183 95.5625,398.183 101.5,405.5C 94.8056,410.694 87.4723,411.694 79.5,408.5C 72.1078,410.705 68.7745,415.371 69.5,422.5C 78.1731,422.334 86.8397,422.5 95.5,423C 94.6637,424.243 94.997,425.41 96.5,426.5C 97.8333,425.167 99.1667,425.167 100.5,426.5C 101.5,425.833 102.5,425.167 103.5,424.5C 104.891,425.645 106.224,425.645 107.5,424.5C 106.167,423.5 104.833,422.5 103.5,421.5C 104.5,420.5 105.5,419.5 106.5,418.5C 107.167,419.833 107.833,421.167 108.5,422.5C 110.714,420.076 111.714,420.743 111.5,424.5C 112.833,424.5 114.167,424.5 115.5,424.5 Z"/></g>
<g><path style="opacity:1" fill="#585a5a" d="M 400.5,82.5 C 401.833,198.167 401.833,313.833 400.5,429.5C 376.661,429.831 352.994,429.498 329.5,428.5C 329.833,428.5 330.167,428.5 330.5,428.5C 353.833,428.5 377.167,428.5 400.5,428.5C 400.5,313.167 400.5,197.833 400.5,82.5 Z"/></g>
<g><path style="opacity:1" fill="#d2d2d2" d="M -0.5,360.5 C 2.34602,360.59 4.67935,361.756 6.5,364C 5.19769,368.782 5.19769,373.615 6.5,378.5C 7.16667,376.5 7.83333,374.5 8.5,372.5C 12.5596,375.196 16.893,377.363 21.5,379C 22.6405,379.741 22.6405,380.575 21.5,381.5C 23.2873,382.316 24.9539,383.316 26.5,384.5C 27.1924,383.975 27.6924,383.308 28,382.5C 28.3678,383.91 29.2011,384.91 30.5,385.5C 32.7466,384.626 35.0799,384.292 37.5,384.5C 37.238,383.022 37.5713,381.689 38.5,380.5C 41.4213,383.219 42.088,386.386 40.5,390C 39.0563,390.781 37.723,390.614 36.5,389.5C 36.8333,388.833 37.1667,388.167 37.5,387.5C 35.5,386.167 33.5,386.167 31.5,387.5C 34.7963,390.189 38.2963,392.523 42,394.5C 44.5609,392.019 45.0609,389.186 43.5,386C 43.8361,384.97 44.5028,384.47 45.5,384.5C 45.1706,399.676 45.5039,414.676 46.5,429.5C 46.8333,429.5 47.1667,429.5 47.5,429.5C 57.0083,430.167 66.675,430.833 76.5,431.5C 77.376,432.251 78.376,432.751 79.5,433C 81.3772,436.576 83.7105,439.742 86.5,442.5C 84.5175,444.024 82.1841,445.024 79.5,445.5C 78.2634,446.281 77.2634,447.281 76.5,448.5C 77.2739,449.711 78.1072,449.711 79,448.5C 80.4471,451.281 82.2804,453.781 84.5,456C 85.635,456.749 86.635,456.583 87.5,455.5C 89.7853,453.123 91.952,450.79 94,448.5C 95.3707,449.581 96.8707,450.415 98.5,451C 98.1667,451.333 97.8333,451.667 97.5,452C 100.057,452.685 101.891,454.185 103,456.5C 103.333,456.167 103.667,455.833 104,455.5C 106.294,456.059 108.294,457.726 110,460.5C 110.333,460.167 110.667,459.833 111,459.5C 113.096,460.715 112.929,461.549 110.5,462C 111.91,462.368 112.91,463.201 113.5,464.5C 115.045,465.452 116.712,465.785 118.5,465.5C 118.966,467.201 118.966,468.701 118.5,470C 119.793,470.49 121.127,470.657 122.5,470.5C 122.343,471.873 122.51,473.207 123,474.5C 123.308,473.692 123.808,473.025 124.5,472.5C 126.027,474.193 127.36,476.027 128.5,478C 129.825,477.852 130.992,478.018 132,478.5C 133.604,480.946 135.437,483.28 137.5,485.5C 138.803,486.718 139.803,486.385 140.5,484.5C 141.59,485.391 141.59,486.391 140.5,487.5C 142.363,490.712 145.03,492.712 148.5,493.5C 149.035,496.136 150.368,498.303 152.5,500C 152.167,500.333 151.833,500.667 151.5,501C 152.793,501.49 154.127,501.657 155.5,501.5C 155.5,502.5 155.5,503.5 155.5,504.5C 156.552,504.351 157.552,504.517 158.5,505C 160.553,508.2 162.886,511.2 165.5,514C 168.989,515.72 171.989,517.887 174.5,520.5C 116.167,520.5 57.8333,520.5 -0.5,520.5C -0.5,467.167 -0.5,413.833 -0.5,360.5 Z"/></g>
</svg>
